<mxfile host="app.diagrams.net" modified="2022-04-07T08:32:16.588Z" agent="5.0 (X11)" etag="YaeYuYBQMNW4nBIYmc2v" version="17.4.0" type="github">
  <diagram name="Page-1" id="e7e014a7-5840-1c2e-5031-d8a46d1fe8dd">
    <mxGraphModel dx="868" dy="593" grid="1" gridSize="10" guides="1" tooltips="1" connect="1" arrows="1" fold="1" page="1" pageScale="1" pageWidth="1169" pageHeight="826" background="none" math="0" shadow="0">
      <root>
        <mxCell id="0" />
        <mxCell id="1" parent="0" />
        <mxCell id="2" value="User" style="swimlane;whiteSpace=wrap" parent="1" vertex="1">
          <mxGeometry x="164.5" y="128" width="280" height="402" as="geometry" />
        </mxCell>
        <mxCell id="5" value="" style="ellipse;shape=startState;fillColor=#000000;strokeColor=#ff0000;" parent="2" vertex="1">
          <mxGeometry x="100" y="40" width="30" height="30" as="geometry" />
        </mxCell>
        <mxCell id="6" value="" style="edgeStyle=elbowEdgeStyle;elbow=horizontal;verticalAlign=bottom;endArrow=open;endSize=8;strokeColor=#FF0000;endFill=1;rounded=0" parent="2" source="5" target="7" edge="1">
          <mxGeometry x="100" y="40" as="geometry">
            <mxPoint x="115" y="110" as="targetPoint" />
          </mxGeometry>
        </mxCell>
        <mxCell id="7" value="klik logout" style="" parent="2" vertex="1">
          <mxGeometry x="60" y="112" width="110" height="50" as="geometry" />
        </mxCell>
        <mxCell id="uBzv8plQHfjgvvxTBPZD-51" style="edgeStyle=orthogonalEdgeStyle;rounded=0;orthogonalLoop=1;jettySize=auto;html=1;entryX=0.5;entryY=0;entryDx=0;entryDy=0;" edge="1" parent="2" source="uBzv8plQHfjgvvxTBPZD-48" target="uBzv8plQHfjgvvxTBPZD-50">
          <mxGeometry relative="1" as="geometry" />
        </mxCell>
        <mxCell id="uBzv8plQHfjgvvxTBPZD-48" value="redirect ke login" style="" vertex="1" parent="2">
          <mxGeometry x="70" y="232" width="110" height="50" as="geometry" />
        </mxCell>
        <mxCell id="uBzv8plQHfjgvvxTBPZD-50" value="" style="ellipse;html=1;shape=endState;fillColor=#000000;strokeColor=#ff0000;" vertex="1" parent="2">
          <mxGeometry x="110" y="342" width="30" height="30" as="geometry" />
        </mxCell>
        <mxCell id="3" value="Server" style="swimlane;whiteSpace=wrap" parent="1" vertex="1">
          <mxGeometry x="445" y="128" width="280" height="402" as="geometry" />
        </mxCell>
        <mxCell id="uBzv8plQHfjgvvxTBPZD-46" style="edgeStyle=orthogonalEdgeStyle;rounded=0;orthogonalLoop=1;jettySize=auto;html=1;entryX=0.414;entryY=0.04;entryDx=0;entryDy=0;entryPerimeter=0;" edge="1" parent="3" source="16" target="18">
          <mxGeometry relative="1" as="geometry" />
        </mxCell>
        <mxCell id="16" value="memproses logout" style="" parent="3" vertex="1">
          <mxGeometry x="85" y="62" width="110" height="50" as="geometry" />
        </mxCell>
        <mxCell id="18" value="Menghapus&#xa;session" style="" parent="3" vertex="1">
          <mxGeometry x="95" y="235" width="110" height="50" as="geometry" />
        </mxCell>
        <mxCell id="uBzv8plQHfjgvvxTBPZD-41" style="edgeStyle=orthogonalEdgeStyle;rounded=0;orthogonalLoop=1;jettySize=auto;html=1;entryX=0.018;entryY=0.46;entryDx=0;entryDy=0;entryPerimeter=0;exitX=1.014;exitY=0.52;exitDx=0;exitDy=0;exitPerimeter=0;" edge="1" parent="1" source="7" target="16">
          <mxGeometry relative="1" as="geometry">
            <mxPoint x="340" y="263" as="sourcePoint" />
          </mxGeometry>
        </mxCell>
        <mxCell id="uBzv8plQHfjgvvxTBPZD-49" style="edgeStyle=orthogonalEdgeStyle;rounded=0;orthogonalLoop=1;jettySize=auto;html=1;entryX=1.041;entryY=0.54;entryDx=0;entryDy=0;entryPerimeter=0;exitX=-0.005;exitY=0.46;exitDx=0;exitDy=0;exitPerimeter=0;" edge="1" parent="1" source="18" target="uBzv8plQHfjgvvxTBPZD-48">
          <mxGeometry relative="1" as="geometry" />
        </mxCell>
      </root>
    </mxGraphModel>
  </diagram>
</mxfile>
